# MagicaVoxel @ Ephtracy

# group
o dialog box

# material
mtllib dialog.mtl
usemtl palette

# normals
vn -1 0 0
vn 1 0 0
vn 0 0 1
vn 0 0 -1
vn 0 -1 0
vn 0 1 0

# texcoords
vt 0.970703 0.5
vt 0.974609 0.5
vt 0.978516 0.5

# verts
v -0.7 0.3 -3.72529e-008
v -0.7 0.3 -0.2
v -0.7 0.5 -3.72529e-008
v -0.7 0.5 -0.2
v -0.7 1.2 -3.72529e-008
v -0.7 1.2 -0.2
v -0.4 0.3 -3.72529e-008
v -0.4 0.3 -0.2
v -0.4 0.4 -3.72529e-008
v -0.4 0.4 -0.2
v 0.6 0.4 -3.72529e-008
v 0.6 0.4 -0.2
v 0.6 0.5 -3.72529e-008
v 0.6 0.5 -0.2
v 0.6 1.2 -3.72529e-008
v 0.6 1.2 -0.2
v -0.7 0.3 -3.72529e-008
v -0.7 0.5 -3.72529e-008
v -0.7 1.2 -3.72529e-008
v -0.6 0.6 -3.72529e-008
v -0.6 0.7 -3.72529e-008
v -0.6 0.8 -3.72529e-008
v -0.6 0.9 -3.72529e-008
v -0.6 1 -3.72529e-008
v -0.6 1.1 -3.72529e-008
v -0.4 0.3 -3.72529e-008
v -0.4 0.4 -3.72529e-008
v 0.5 0.6 -3.72529e-008
v 0.5 0.7 -3.72529e-008
v 0.5 0.8 -3.72529e-008
v 0.5 0.9 -3.72529e-008
v 0.5 1 -3.72529e-008
v 0.5 1.1 -3.72529e-008
v 0.6 0.4 -3.72529e-008
v 0.6 0.5 -3.72529e-008
v 0.6 1.2 -3.72529e-008
v -0.7 0.3 -0.2
v -0.7 0.5 -0.2
v -0.7 1.2 -0.2
v -0.6 0.6 -0.2
v -0.6 0.7 -0.2
v -0.6 0.8 -0.2
v -0.6 0.9 -0.2
v -0.6 1 -0.2
v -0.6 1.1 -0.2
v -0.4 0.3 -0.2
v -0.4 0.4 -0.2
v 0.5 0.6 -0.2
v 0.5 0.7 -0.2
v 0.5 0.8 -0.2
v 0.5 0.9 -0.2
v 0.5 1 -0.2
v 0.5 1.1 -0.2
v 0.6 0.4 -0.2
v 0.6 0.5 -0.2
v 0.6 1.2 -0.2
v -0.7 0.3 -3.72529e-008
v -0.4 0.3 -3.72529e-008
v -0.7 0.3 -0.2
v -0.4 0.3 -0.2
v -0.4 0.4 -3.72529e-008
v 0.6 0.4 -3.72529e-008
v -0.4 0.4 -0.2
v 0.6 0.4 -0.2
v -0.7 1.2 -3.72529e-008
v 0.6 1.2 -3.72529e-008
v -0.7 1.2 -0.2
v 0.6 1.2 -0.2

# faces
f 3/3/1 2/3/1 1/3/1
f 4/3/1 2/3/1 3/3/1
f 5/1/1 4/1/1 3/1/1
f 6/1/1 4/1/1 5/1/1
f 7/3/2 8/3/2 9/3/2
f 9/3/2 8/3/2 10/3/2
f 11/3/2 12/3/2 13/3/2
f 13/3/2 12/3/2 14/3/2
f 13/1/2 14/1/2 15/1/2
f 15/1/2 14/1/2 16/1/2
f 20/1/3 19/1/3 18/1/3
f 21/1/3 19/1/3 20/1/3
f 22/1/3 19/1/3 21/1/3
f 23/1/3 19/1/3 22/1/3
f 24/1/3 19/1/3 23/1/3
f 25/1/3 19/1/3 24/1/3
f 26/3/3 18/3/3 17/3/3
f 27/3/3 18/3/3 26/3/3
f 28/1/3 20/1/3 18/1/3
f 28/2/3 21/2/3 20/2/3
f 29/1/3 22/1/3 21/1/3
f 29/2/3 21/2/3 28/2/3
f 30/2/3 23/2/3 22/2/3
f 30/1/3 22/1/3 29/1/3
f 31/1/3 24/1/3 23/1/3
f 31/2/3 23/2/3 30/2/3
f 32/2/3 25/2/3 24/2/3
f 32/1/3 24/1/3 31/1/3
f 33/1/3 19/1/3 25/1/3
f 33/2/3 25/2/3 32/2/3
f 34/3/3 18/3/3 27/3/3
f 35/1/3 32/1/3 31/1/3
f 35/3/3 18/3/3 34/3/3
f 35/1/3 28/1/3 18/1/3
f 35/1/3 33/1/3 32/1/3
f 35/1/3 31/1/3 30/1/3
f 35/1/3 30/1/3 29/1/3
f 35/1/3 29/1/3 28/1/3
f 36/1/3 19/1/3 33/1/3
f 36/1/3 33/1/3 35/1/3
f 38/1/4 39/1/4 40/1/4
f 40/1/4 39/1/4 41/1/4
f 41/1/4 39/1/4 42/1/4
f 42/1/4 39/1/4 43/1/4
f 43/1/4 39/1/4 44/1/4
f 44/1/4 39/1/4 45/1/4
f 37/3/4 38/3/4 46/3/4
f 46/3/4 38/3/4 47/3/4
f 38/1/4 40/1/4 48/1/4
f 40/2/4 41/2/4 48/2/4
f 41/1/4 42/1/4 49/1/4
f 48/2/4 41/2/4 49/2/4
f 42/2/4 43/2/4 50/2/4
f 49/1/4 42/1/4 50/1/4
f 43/1/4 44/1/4 51/1/4
f 50/2/4 43/2/4 51/2/4
f 44/2/4 45/2/4 52/2/4
f 51/1/4 44/1/4 52/1/4
f 45/1/4 39/1/4 53/1/4
f 52/2/4 45/2/4 53/2/4
f 47/3/4 38/3/4 54/3/4
f 51/1/4 52/1/4 55/1/4
f 54/3/4 38/3/4 55/3/4
f 38/1/4 48/1/4 55/1/4
f 52/1/4 53/1/4 55/1/4
f 50/1/4 51/1/4 55/1/4
f 49/1/4 50/1/4 55/1/4
f 48/1/4 49/1/4 55/1/4
f 53/1/4 39/1/4 56/1/4
f 55/1/4 53/1/4 56/1/4
f 59/3/5 58/3/5 57/3/5
f 60/3/5 58/3/5 59/3/5
f 63/3/5 62/3/5 61/3/5
f 64/3/5 62/3/5 63/3/5
f 65/1/6 66/1/6 67/1/6
f 67/1/6 66/1/6 68/1/6
